<?xml version="1.0" encoding="UTF-8" standalone="no"?>
<svg width="78.8mm" height="78.8mm"
 viewBox="0 0 1576 1576"
 xmlns="http://www.w3.org/2000/svg" xmlns:xlink="http://www.w3.org/1999/xlink"  version="1.2" baseProfile="tiny">
<title>Proteus SVG export</title>
<desc>Created by Proteus Design Suite</desc>
<defs>
</defs>
<g fill="none" stroke="black" stroke-width="1" fill-rule="evenodd" stroke-linecap="square" stroke-linejoin="bevel" >

<g fill="#ffffff" fill-opacity="1" stroke="none" transform="matrix(1,0,0,1,0,0)"
font-family="SimSun" font-size="63.5" font-weight="400" font-style="normal" 
>
<path vector-effect="non-scaling-stroke" fill-rule="evenodd" d="M0,0 L1576,0 L1576,1576 L0,1576 L0,0"/>
</g>

<g fill="none" stroke="#000000" stroke-opacity="1" stroke-width="8" stroke-linecap="round" stroke-linejoin="bevel" transform="matrix(1,0,0,1,0,0)"
font-family="SimSun" font-size="63.5" font-weight="400" font-style="normal" 
>
<path vector-effect="none" fill-rule="evenodd" d="M737,915"/>
</g>

<g fill="none" stroke="#000000" stroke-opacity="1" stroke-width="8" stroke-linecap="round" stroke-linejoin="bevel" transform="matrix(1,0,0,1,0,0)"
font-family="SimSun" font-size="63.5" font-weight="400" font-style="normal" 
>
<path vector-effect="none" fill-rule="evenodd" d="M1296,229 L763,229 L763,280"/>
</g>

<g fill="none" stroke="#000000" stroke-opacity="1" stroke-width="8" stroke-linecap="round" stroke-linejoin="bevel" transform="matrix(1,0,0,1,0,0)"
font-family="SimSun" font-size="63.5" font-weight="400" font-style="normal" 
>
<path vector-effect="none" fill-rule="evenodd" d="M737,483 L737,661"/>
</g>

<g fill="none" stroke="#000000" stroke-opacity="1" stroke-width="8" stroke-linecap="round" stroke-linejoin="bevel" transform="matrix(1,0,0,1,0,0)"
font-family="SimSun" font-size="63.5" font-weight="400" font-style="normal" 
>
<path vector-effect="none" fill-rule="evenodd" d="M737,483 L737,432 L763,432"/>
</g>

<g fill="none" stroke="#000000" stroke-opacity="1" stroke-width="8" stroke-linecap="round" stroke-linejoin="bevel" transform="matrix(1,0,0,1,0,0)"
font-family="SimSun" font-size="63.5" font-weight="400" font-style="normal" 
>
<path vector-effect="none" fill-rule="evenodd" d="M737,1271 L1550,1271 L1550,229 L1296,229"/>
</g>

<g fill="none" stroke="#000000" stroke-opacity="1" stroke-width="8" stroke-linecap="round" stroke-linejoin="bevel" transform="matrix(1,0,0,1,0,0)"
font-family="SimSun" font-size="63.5" font-weight="400" font-style="normal" 
>
<path vector-effect="none" fill-rule="evenodd" d="M737,1271"/>
</g>

<g fill="none" stroke="#000000" stroke-opacity="1" stroke-width="8" stroke-linecap="round" stroke-linejoin="bevel" transform="matrix(1,0,0,1,0,0)"
font-family="SimSun" font-size="63.5" font-weight="400" font-style="normal" 
>
<path vector-effect="none" fill-rule="evenodd" d="M737,1271 L737,1296 L280,1296"/>
</g>

<g fill="none" stroke="#000000" stroke-opacity="1" stroke-width="8" stroke-linecap="round" stroke-linejoin="bevel" transform="matrix(1,0,0,1,0,0)"
font-family="SimSun" font-size="63.5" font-weight="400" font-style="normal" 
>
<path vector-effect="none" fill-rule="evenodd" d="M1296,686 L1296,915 L737,915"/>
</g>

<g fill="none" stroke="#000000" stroke-opacity="1" stroke-width="8" stroke-linecap="round" stroke-linejoin="bevel" transform="matrix(1,0,0,1,0,0)"
font-family="SimSun" font-size="63.5" font-weight="400" font-style="normal" 
>
<path vector-effect="none" fill-rule="evenodd" d="M1296,432 L1296,229"/>
</g>

<g fill="none" stroke="#000000" stroke-opacity="1" stroke-width="8" stroke-linecap="round" stroke-linejoin="bevel" transform="matrix(1,0,0,1,0,0)"
font-family="SimSun" font-size="63.5" font-weight="400" font-style="normal" 
>
<path vector-effect="none" fill-rule="evenodd" d="M737,1017 L737,915"/>
</g>

<g fill="none" stroke="#000000" stroke-opacity="1" stroke-width="8" stroke-linecap="round" stroke-linejoin="bevel" transform="matrix(1,0,0,1,0,0)"
font-family="SimSun" font-size="63.5" font-weight="400" font-style="normal" 
>
<path vector-effect="none" fill-rule="evenodd" d="M737,1017"/>
</g>

<g fill="none" stroke="#000000" stroke-opacity="1" stroke-width="8" stroke-linecap="round" stroke-linejoin="bevel" transform="matrix(1,0,0,1,0,0)"
font-family="SimSun" font-size="63.5" font-weight="400" font-style="normal" 
>
<path vector-effect="none" fill-rule="evenodd" d="M737,1017 L382,1017 L382,991 L280,991"/>
</g>

<g fill="none" stroke="#000000" stroke-opacity="1" stroke-width="8" stroke-linecap="round" stroke-linejoin="bevel" transform="matrix(1,0,0,1,0,0)"
font-family="SimSun" font-size="63.5" font-weight="400" font-style="normal" 
>
<path vector-effect="none" fill-rule="evenodd" d="M717,712 L758,712 L758,864 L717,864 L717,712"/>
</g>

<g fill="none" stroke="#000000" stroke-opacity="1" stroke-width="8" stroke-linecap="round" stroke-linejoin="bevel" transform="matrix(1,0,0,1,0,0)"
font-family="SimSun" font-size="63.5" font-weight="400" font-style="normal" 
>
<polyline fill="none" vector-effect="none" points="737,915 737,864 " />
</g>

<g fill="none" stroke="#000000" stroke-opacity="1" stroke-width="8" stroke-linecap="round" stroke-linejoin="bevel" transform="matrix(1,0,0,1,0,0)"
font-family="SimSun" font-size="63.5" font-weight="400" font-style="normal" 
>
<polyline fill="none" vector-effect="none" points="737,661 737,712 " />
</g>

<g fill="none" stroke="#000000" stroke-opacity="1" stroke-width="1" stroke-linecap="square" stroke-linejoin="bevel" transform="matrix(1,0,0,1,0,0)"
font-family="Arial" font-size="60.96" font-weight="400" font-style="normal" 
>
<text fill="#000000" fill-opacity="1" stroke="none" xml:space="preserve" x="787" y="763" font-family="Arial" font-size="60.96" font-weight="400" font-style="normal" 
 >R6</text>
</g>

<g fill="none" stroke="#000000" stroke-opacity="1" stroke-width="8" stroke-linecap="round" stroke-linejoin="bevel" transform="matrix(1,0,0,1,0,0)"
font-family="SimSun" font-size="63.5" font-weight="400" font-style="normal" 
>
</g>

<g fill="none" stroke="#000000" stroke-opacity="1" stroke-width="1" stroke-linecap="square" stroke-linejoin="bevel" transform="matrix(1,0,0,1,0,0)"
font-family="Arial" font-size="40.64" font-weight="400" font-style="normal" 
>
<text fill="#000000" fill-opacity="1" stroke="none" xml:space="preserve" x="787" y="822" font-family="Arial" font-size="40.64" font-weight="400" font-style="normal" 
 >5100</text>
</g>

<g fill="none" stroke="#000000" stroke-opacity="1" stroke-width="8" stroke-linecap="round" stroke-linejoin="bevel" transform="matrix(1,0,0,1,0,0)"
font-family="SimSun" font-size="63.5" font-weight="400" font-style="normal" 
>
</g>

<g fill="none" stroke="#000000" stroke-opacity="1" stroke-width="8" stroke-linecap="round" stroke-linejoin="bevel" transform="matrix(1,0,0,1,0,0)"
font-family="SimSun" font-size="63.5" font-weight="400" font-style="normal" 
>
<polyline fill="none" vector-effect="none" points="686,382 839,382 " />
</g>

<g fill="none" stroke="#000000" stroke-opacity="1" stroke-width="8" stroke-linecap="round" stroke-linejoin="bevel" transform="matrix(1,0,0,1,0,0)"
font-family="SimSun" font-size="63.5" font-weight="400" font-style="normal" 
>
<polyline fill="none" vector-effect="none" points="737,356 788,356 " />
</g>

<g fill="none" stroke="#000000" stroke-opacity="1" stroke-width="8" stroke-linecap="round" stroke-linejoin="bevel" transform="matrix(1,0,0,1,0,0)"
font-family="SimSun" font-size="63.5" font-weight="400" font-style="normal" 
>
<polyline fill="none" vector-effect="none" points="763,356 763,331 " />
</g>

<g fill="none" stroke="#000000" stroke-opacity="1" stroke-width="8" stroke-linecap="round" stroke-linejoin="bevel" transform="matrix(1,0,0,1,0,0)"
font-family="SimSun" font-size="63.5" font-weight="400" font-style="normal" 
>
<polyline fill="none" vector-effect="none" points="763,432 763,382 " />
</g>

<g fill="none" stroke="#000000" stroke-opacity="1" stroke-width="8" stroke-linecap="round" stroke-linejoin="bevel" transform="matrix(1,0,0,1,0,0)"
font-family="SimSun" font-size="63.5" font-weight="400" font-style="normal" 
>
<polyline fill="none" vector-effect="none" points="763,280 763,331 " />
</g>

<g fill="none" stroke="#000000" stroke-opacity="1" stroke-width="1" stroke-linecap="square" stroke-linejoin="bevel" transform="matrix(1,0,0,1,0,0)"
font-family="Arial" font-size="60.96" font-weight="400" font-style="normal" 
>
<text fill="#000000" fill-opacity="1" stroke="none" xml:space="preserve" x="868" y="382" font-family="Arial" font-size="60.96" font-weight="400" font-style="normal" 
 >BAT3</text>
</g>

<g fill="none" stroke="#000000" stroke-opacity="1" stroke-width="8" stroke-linecap="round" stroke-linejoin="bevel" transform="matrix(1,0,0,1,0,0)"
font-family="SimSun" font-size="63.5" font-weight="400" font-style="normal" 
>
</g>

<g fill="none" stroke="#000000" stroke-opacity="1" stroke-width="1" stroke-linecap="square" stroke-linejoin="bevel" transform="matrix(1,0,0,1,0,0)"
font-family="Arial" font-size="40.64" font-weight="400" font-style="normal" 
>
<text fill="#000000" fill-opacity="1" stroke="none" xml:space="preserve" x="868" y="441" font-family="Arial" font-size="40.64" font-weight="400" font-style="normal" 
 >1V</text>
</g>

<g fill="none" stroke="#000000" stroke-opacity="1" stroke-width="8" stroke-linecap="round" stroke-linejoin="bevel" transform="matrix(1,0,0,1,0,0)"
font-family="SimSun" font-size="63.5" font-weight="400" font-style="normal" 
>
</g>

<g fill="none" stroke="#000000" stroke-opacity="1" stroke-width="8" stroke-linecap="round" stroke-linejoin="bevel" transform="matrix(1,0,0,1,0,0)"
font-family="SimSun" font-size="63.5" font-weight="400" font-style="normal" 
>
<path vector-effect="none" fill-rule="evenodd" d="M717,1067 L758,1067 L758,1220 L717,1220 L717,1067"/>
</g>

<g fill="none" stroke="#000000" stroke-opacity="1" stroke-width="8" stroke-linecap="round" stroke-linejoin="bevel" transform="matrix(1,0,0,1,0,0)"
font-family="SimSun" font-size="63.5" font-weight="400" font-style="normal" 
>
<polyline fill="none" vector-effect="none" points="737,1271 737,1220 " />
</g>

<g fill="none" stroke="#000000" stroke-opacity="1" stroke-width="8" stroke-linecap="round" stroke-linejoin="bevel" transform="matrix(1,0,0,1,0,0)"
font-family="SimSun" font-size="63.5" font-weight="400" font-style="normal" 
>
<polyline fill="none" vector-effect="none" points="737,1017 737,1067 " />
</g>

<g fill="none" stroke="#000000" stroke-opacity="1" stroke-width="1" stroke-linecap="square" stroke-linejoin="bevel" transform="matrix(1,0,0,1,0,0)"
font-family="Arial" font-size="60.96" font-weight="400" font-style="normal" 
>
<text fill="#000000" fill-opacity="1" stroke="none" xml:space="preserve" x="787" y="1118" font-family="Arial" font-size="60.96" font-weight="400" font-style="normal" 
 >R7</text>
</g>

<g fill="none" stroke="#000000" stroke-opacity="1" stroke-width="8" stroke-linecap="round" stroke-linejoin="bevel" transform="matrix(1,0,0,1,0,0)"
font-family="SimSun" font-size="63.5" font-weight="400" font-style="normal" 
>
</g>

<g fill="none" stroke="#000000" stroke-opacity="1" stroke-width="1" stroke-linecap="square" stroke-linejoin="bevel" transform="matrix(1,0,0,1,0,0)"
font-family="Arial" font-size="40.64" font-weight="400" font-style="normal" 
>
<text fill="#000000" fill-opacity="1" stroke="none" xml:space="preserve" x="787" y="1178" font-family="Arial" font-size="40.64" font-weight="400" font-style="normal" 
 >5100</text>
</g>

<g fill="none" stroke="#000000" stroke-opacity="1" stroke-width="8" stroke-linecap="round" stroke-linejoin="bevel" transform="matrix(1,0,0,1,0,0)"
font-family="SimSun" font-size="63.5" font-weight="400" font-style="normal" 
>
</g>

<g fill="#000000" fill-opacity="1" stroke="#000000" stroke-opacity="1" stroke-width="8" stroke-linecap="round" stroke-linejoin="bevel" transform="matrix(1,0,0,1,0,0)"
font-family="SimSun" font-size="63.5" font-weight="400" font-style="normal" 
>
<path vector-effect="none" fill-rule="evenodd" d="M747,915 C747,920.523 742.523,925 737,925 C731.477,925 727,920.523 727,915 C727,909.477 731.477,905 737,905 C742.523,905 747,909.477 747,915 "/>
</g>

<g fill="#000000" fill-opacity="1" stroke="#000000" stroke-opacity="1" stroke-width="8" stroke-linecap="round" stroke-linejoin="bevel" transform="matrix(1,0,0,1,0,0)"
font-family="SimSun" font-size="63.5" font-weight="400" font-style="normal" 
>
<path vector-effect="none" fill-rule="evenodd" d="M1306,229 C1306,234.523 1301.52,239 1296,239 C1290.48,239 1286,234.523 1286,229 C1286,223.477 1290.48,219 1296,219 C1301.52,219 1306,223.477 1306,229 "/>
</g>

<g fill="none" stroke="#000000" stroke-opacity="1" stroke-width="8" stroke-linecap="round" stroke-linejoin="bevel" transform="matrix(1,0,0,1,0,0)"
font-family="SimSun" font-size="63.5" font-weight="400" font-style="normal" 
>
<path vector-effect="none" fill-rule="evenodd" d="M382,1144 C382,1200.33 336.333,1246 280,1246 C223.667,1246 178,1200.33 178,1144 C178,1087.67 223.667,1042 280,1042 C336.333,1042 382,1087.67 382,1144 "/>
</g>

<g fill="none" stroke="#000000" stroke-opacity="1" stroke-width="3" stroke-linecap="round" stroke-linejoin="bevel" transform="matrix(1,0,0,1,0,0)"
font-family="SimSun" font-size="63.5" font-weight="400" font-style="normal" 
>
<polyline fill="none" vector-effect="none" points="260,1006 239,1006 " />
</g>

<g fill="none" stroke="#000000" stroke-opacity="1" stroke-width="3" stroke-linecap="round" stroke-linejoin="bevel" transform="matrix(1,0,0,1,0,0)"
font-family="SimSun" font-size="63.5" font-weight="400" font-style="normal" 
>
<polyline fill="none" vector-effect="none" points="250,996 250,1017 " />
</g>

<g fill="none" stroke="#000000" stroke-opacity="1" stroke-width="3" stroke-linecap="round" stroke-linejoin="bevel" transform="matrix(1,0,0,1,0,0)"
font-family="SimSun" font-size="63.5" font-weight="400" font-style="normal" 
>
<polyline fill="none" vector-effect="none" points="260,1281 239,1281 " />
</g>

<g fill="none" stroke="#000000" stroke-opacity="1" stroke-width="4" stroke-linecap="round" stroke-linejoin="bevel" transform="matrix(1,0,0,1,0,0)"
font-family="SimSun" font-size="63.5" font-weight="400" font-style="normal" 
>
<path vector-effect="none" fill-rule="evenodd" d="M209,1103 L351,1103 L351,1154 L209,1154 L209,1103"/>
</g>

<g fill="none" stroke="#000000" stroke-opacity="1" stroke-width="1" stroke-linecap="square" stroke-linejoin="bevel" transform="matrix(1,0,0,1,0,0)"
font-family="Arial" font-size="38.608" font-weight="400" font-style="italic" 
>
<text fill="#000000" fill-opacity="1" stroke="none" xml:space="preserve" x="236" y="1202" font-family="Arial" font-size="38.608" font-weight="400" font-style="italic" 
 >Volts</text>
</g>

<g fill="none" stroke="#000000" stroke-opacity="1" stroke-width="4" stroke-linecap="round" stroke-linejoin="bevel" transform="matrix(1,0,0,1,0,0)"
font-family="SimSun" font-size="63.5" font-weight="400" font-style="normal" 
>
</g>

<g fill="none" stroke="#000000" stroke-opacity="1" stroke-width="1" stroke-linecap="square" stroke-linejoin="bevel" transform="matrix(1,0,0,1,0,0)"
font-family="Arial" font-size="40.64" font-weight="400" font-style="normal" 
>
<text fill="#000000" fill-opacity="1" stroke="none" xml:space="preserve" x="228" y="1142" font-family="Arial" font-size="40.64" font-weight="400" font-style="normal" 
 >+0.50</text>
</g>

<g fill="none" stroke="#000000" stroke-opacity="1" stroke-width="4" stroke-linecap="round" stroke-linejoin="bevel" transform="matrix(1,0,0,1,0,0)"
font-family="SimSun" font-size="63.5" font-weight="400" font-style="normal" 
>
</g>

<g fill="none" stroke="#000000" stroke-opacity="1" stroke-width="8" stroke-linecap="round" stroke-linejoin="bevel" transform="matrix(1,0,0,1,0,0)"
font-family="SimSun" font-size="63.5" font-weight="400" font-style="normal" 
>
<polyline fill="none" vector-effect="none" points="280,1296 280,1245 " />
</g>

<g fill="none" stroke="#000000" stroke-opacity="1" stroke-width="8" stroke-linecap="round" stroke-linejoin="bevel" transform="matrix(1,0,0,1,0,0)"
font-family="SimSun" font-size="63.5" font-weight="400" font-style="normal" 
>
<polyline fill="none" vector-effect="none" points="280,991 280,1042 " />
</g>

<g fill="#000000" fill-opacity="1" stroke="#000000" stroke-opacity="1" stroke-width="8" stroke-linecap="round" stroke-linejoin="bevel" transform="matrix(1,0,0,1,0,0)"
font-family="SimSun" font-size="63.5" font-weight="400" font-style="normal" 
>
<path vector-effect="none" fill-rule="evenodd" d="M747,483 C747,488.523 742.523,493 737,493 C731.477,493 727,488.523 727,483 C727,477.477 731.477,473 737,473 C742.523,473 747,477.477 747,483 "/>
</g>

<g fill="#000000" fill-opacity="1" stroke="#000000" stroke-opacity="1" stroke-width="8" stroke-linecap="round" stroke-linejoin="bevel" transform="matrix(1,0,0,1,0,0)"
font-family="SimSun" font-size="63.5" font-weight="400" font-style="normal" 
>
<path vector-effect="none" fill-rule="evenodd" d="M747,1271 C747,1276.52 742.523,1281 737,1281 C731.477,1281 727,1276.52 727,1271 C727,1265.48 731.477,1261 737,1261 C742.523,1261 747,1265.48 747,1271 "/>
</g>

<g fill="none" stroke="#000000" stroke-opacity="1" stroke-width="8" stroke-linecap="round" stroke-linejoin="bevel" transform="matrix(1,0,0,1,0,0)"
font-family="SimSun" font-size="63.5" font-weight="400" font-style="normal" 
>
<path vector-effect="none" fill-rule="evenodd" d="M1306,498 C1306,503.523 1301.52,508 1296,508 C1290.48,508 1286,503.523 1286,498 C1286,492.477 1290.48,488 1296,488 C1301.52,488 1306,492.477 1306,498 "/>
</g>

<g fill="none" stroke="#000000" stroke-opacity="1" stroke-width="8" stroke-linecap="round" stroke-linejoin="bevel" transform="matrix(1,0,0,1,0,0)"
font-family="SimSun" font-size="63.5" font-weight="400" font-style="normal" 
>
<path vector-effect="none" fill-rule="evenodd" d="M1306,620 C1306,625.523 1301.52,630 1296,630 C1290.48,630 1286,625.523 1286,620 C1286,614.477 1290.48,610 1296,610 C1301.52,610 1306,614.477 1306,620 "/>
</g>

<g fill="none" stroke="#000000" stroke-opacity="1" stroke-width="8" stroke-linecap="round" stroke-linejoin="bevel" transform="matrix(1,0,0,1,0,0)"
font-family="SimSun" font-size="63.5" font-weight="400" font-style="normal" 
>
<polyline fill="none" vector-effect="none" points="1296,636 1296,631 " />
</g>

<g fill="none" stroke="#000000" stroke-opacity="1" stroke-width="8" stroke-linecap="round" stroke-linejoin="bevel" transform="matrix(1,0,0,1,0,0)"
font-family="SimSun" font-size="63.5" font-weight="400" font-style="normal" 
>
<polyline fill="none" vector-effect="none" points="1296,488 1296,483 " />
</g>

<g fill="none" stroke="#000000" stroke-opacity="1" stroke-width="8" stroke-linecap="round" stroke-linejoin="bevel" transform="matrix(1,0,0,1,0,0)"
font-family="SimSun" font-size="63.5" font-weight="400" font-style="normal" 
>
<polyline fill="none" vector-effect="none" points="1291,610 1230,514 " />
</g>

<g fill="none" stroke="#000000" stroke-opacity="1" stroke-width="8" stroke-linecap="round" stroke-linejoin="bevel" transform="matrix(1,0,0,1,0,0)"
font-family="SimSun" font-size="63.5" font-weight="400" font-style="normal" 
>
<polyline fill="none" vector-effect="none" points="1296,686 1296,636 " />
</g>

<g fill="none" stroke="#000000" stroke-opacity="1" stroke-width="8" stroke-linecap="round" stroke-linejoin="bevel" transform="matrix(1,0,0,1,0,0)"
font-family="SimSun" font-size="63.5" font-weight="400" font-style="normal" 
>
<polyline fill="none" vector-effect="none" points="1296,432 1296,483 " />
</g>

<g fill="none" stroke="#000000" stroke-opacity="1" stroke-width="4" stroke-linecap="round" stroke-linejoin="bevel" transform="matrix(1,0,0,1,0,0)"
font-family="SimSun" font-size="63.5" font-weight="400" font-style="normal" 
>
<path vector-effect="none" fill-rule="evenodd" d="M1265,483 C1265,494.046 1256.05,503 1245,503 C1233.95,503 1225,494.046 1225,483 C1225,471.954 1233.95,463 1245,463 C1256.05,463 1265,471.954 1265,483 "/>
</g>

<g fill="none" stroke="#000000" stroke-opacity="1" stroke-width="4" stroke-linecap="round" stroke-linejoin="bevel" transform="matrix(1,0,0,1,0,0)"
font-family="SimSun" font-size="63.5" font-weight="400" font-style="normal" 
>
<polyline fill="none" vector-effect="none" points="1255,483 1250,488 " />
</g>

<g fill="none" stroke="#000000" stroke-opacity="1" stroke-width="4" stroke-linecap="round" stroke-linejoin="bevel" transform="matrix(1,0,0,1,0,0)"
font-family="SimSun" font-size="63.5" font-weight="400" font-style="normal" 
>
<polyline fill="none" vector-effect="none" points="1255,483 1250,478 " />
</g>

<g fill="none" stroke="#000000" stroke-opacity="1" stroke-width="4" stroke-linecap="round" stroke-linejoin="bevel" transform="matrix(1,0,0,1,0,0)"
font-family="SimSun" font-size="63.5" font-weight="400" font-style="normal" 
>
<polyline fill="none" vector-effect="none" points="1255,483 1235,483 " />
</g>

<g fill="none" stroke="#000000" stroke-opacity="1" stroke-width="4" stroke-linecap="round" stroke-linejoin="bevel" transform="matrix(1,0,0,1,0,0)"
font-family="SimSun" font-size="63.5" font-weight="400" font-style="normal" 
>
<path vector-effect="none" fill-rule="evenodd" d="M1265,432 C1265,443.046 1256.05,452 1245,452 C1233.95,452 1225,443.046 1225,432 C1225,420.954 1233.95,412 1245,412 C1256.05,412 1265,420.954 1265,432 "/>
</g>

<g fill="none" stroke="#000000" stroke-opacity="1" stroke-width="4" stroke-linecap="round" stroke-linejoin="bevel" transform="matrix(1,0,0,1,0,0)"
font-family="SimSun" font-size="63.5" font-weight="400" font-style="normal" 
>
<polyline fill="none" vector-effect="none" points="1235,432 1240,437 " />
</g>

<g fill="none" stroke="#000000" stroke-opacity="1" stroke-width="4" stroke-linecap="round" stroke-linejoin="bevel" transform="matrix(1,0,0,1,0,0)"
font-family="SimSun" font-size="63.5" font-weight="400" font-style="normal" 
>
<polyline fill="none" vector-effect="none" points="1235,432 1240,427 " />
</g>

<g fill="none" stroke="#000000" stroke-opacity="1" stroke-width="4" stroke-linecap="round" stroke-linejoin="bevel" transform="matrix(1,0,0,1,0,0)"
font-family="SimSun" font-size="63.5" font-weight="400" font-style="normal" 
>
<polyline fill="none" vector-effect="none" points="1235,432 1255,432 " />
</g>

<g fill="#000000" fill-opacity="1" stroke="#000000" stroke-opacity="1" stroke-width="8" stroke-linecap="round" stroke-linejoin="bevel" transform="matrix(1,0,0,1,0,0)"
font-family="SimSun" font-size="63.5" font-weight="400" font-style="normal" 
>
<path vector-effect="none" fill-rule="evenodd" d="M747,1017 C747,1022.52 742.523,1027 737,1027 C731.477,1027 727,1022.52 727,1017 C727,1011.48 731.477,1007 737,1007 C742.523,1007 747,1011.48 747,1017 "/>
</g>
</g>
</svg>
