<?xml version="1.0" encoding="UTF-8" standalone="no"?>
<svg width="104.2mm" height="53.4mm"
 viewBox="0 0 2084 1068"
 xmlns="http://www.w3.org/2000/svg" xmlns:xlink="http://www.w3.org/1999/xlink"  version="1.2" baseProfile="tiny">
<title>Proteus SVG export</title>
<desc>Created by Proteus Design Suite</desc>
<defs>
</defs>
<g fill="none" stroke="black" stroke-width="1" fill-rule="evenodd" stroke-linecap="square" stroke-linejoin="bevel" >

<g fill="#e0e0d0" fill-opacity="1" stroke="none" transform="matrix(1,0,0,1,0,0)"
font-family="SimSun" font-size="63.5" font-weight="400" font-style="normal" 
>
<path vector-effect="non-scaling-stroke" fill-rule="evenodd" d="M0,0 L2084,0 L2084,1068 L0,1068 L0,0"/>
</g>

<g fill="none" stroke="#004000" stroke-opacity="1" stroke-width="8" stroke-linecap="round" stroke-linejoin="bevel" transform="matrix(1,0,0,1,0,0)"
font-family="SimSun" font-size="63.5" font-weight="400" font-style="normal" 
>
<path vector-effect="none" fill-rule="evenodd" d="M382,229 L737,229"/>
</g>

<g fill="none" stroke="#004000" stroke-opacity="1" stroke-width="8" stroke-linecap="round" stroke-linejoin="bevel" transform="matrix(1,0,0,1,0,0)"
font-family="SimSun" font-size="63.5" font-weight="400" font-style="normal" 
>
<path vector-effect="none" fill-rule="evenodd" d="M737,382 L483,382 L483,940 L128,940 L128,890"/>
</g>

<g fill="none" stroke="#004000" stroke-opacity="1" stroke-width="8" stroke-linecap="round" stroke-linejoin="bevel" transform="matrix(1,0,0,1,0,0)"
font-family="SimSun" font-size="63.5" font-weight="400" font-style="normal" 
>
<path vector-effect="none" fill-rule="evenodd" d="M1296,229 L1296,128 L1448,128"/>
</g>

<g fill="none" stroke="#004000" stroke-opacity="1" stroke-width="8" stroke-linecap="round" stroke-linejoin="bevel" transform="matrix(1,0,0,1,0,0)"
font-family="SimSun" font-size="63.5" font-weight="400" font-style="normal" 
>
<path vector-effect="none" fill-rule="evenodd" d="M1753,229 L1753,128 L1702,128"/>
</g>

<g fill="none" stroke="#004000" stroke-opacity="1" stroke-width="8" stroke-linecap="round" stroke-linejoin="bevel" transform="matrix(1,0,0,1,0,0)"
font-family="SimSun" font-size="63.5" font-weight="400" font-style="normal" 
>
<path vector-effect="none" fill-rule="evenodd" d="M128,636 L128,737"/>
</g>

<g fill="none" stroke="#004000" stroke-opacity="1" stroke-width="8" stroke-linecap="round" stroke-linejoin="bevel" transform="matrix(1,0,0,1,0,0)"
font-family="SimSun" font-size="63.5" font-weight="400" font-style="normal" 
>
<path vector-effect="none" fill-rule="evenodd" d="M128,229 L128,382"/>
</g>

<g fill="none" stroke="#004000" stroke-opacity="1" stroke-width="8" stroke-linecap="round" stroke-linejoin="bevel" transform="matrix(1,0,0,1,0,0)"
font-family="SimSun" font-size="63.5" font-weight="400" font-style="normal" 
>
<path vector-effect="none" fill-rule="evenodd" d="M1702,432 L1753,432 L1753,382"/>
</g>

<g fill="none" stroke="#004000" stroke-opacity="1" stroke-width="8" stroke-linecap="round" stroke-linejoin="bevel" transform="matrix(1,0,0,1,0,0)"
font-family="SimSun" font-size="63.5" font-weight="400" font-style="normal" 
>
<path vector-effect="none" fill-rule="evenodd" d="M1702,432 L1652,432"/>
</g>

<g fill="none" stroke="#004000" stroke-opacity="1" stroke-width="8" stroke-linecap="round" stroke-linejoin="bevel" transform="matrix(1,0,0,1,0,0)"
font-family="SimSun" font-size="63.5" font-weight="400" font-style="normal" 
>
<path vector-effect="none" fill-rule="evenodd" d="M1702,432 L1702,788"/>
</g>

<g fill="none" stroke="#004000" stroke-opacity="1" stroke-width="8" stroke-linecap="round" stroke-linejoin="bevel" transform="matrix(1,0,0,1,0,0)"
font-family="SimSun" font-size="63.5" font-weight="400" font-style="normal" 
>
<path vector-effect="none" fill-rule="evenodd" d="M1296,382 L1398,382"/>
</g>

<g fill="none" stroke="#004000" stroke-opacity="1" stroke-width="8" stroke-linecap="round" stroke-linejoin="bevel" transform="matrix(1,0,0,1,0,0)"
font-family="SimSun" font-size="63.5" font-weight="400" font-style="normal" 
>
<path vector-effect="none" fill-rule="evenodd" d="M1398,382 L1448,382 L1448,432"/>
</g>

<g fill="none" stroke="#004000" stroke-opacity="1" stroke-width="8" stroke-linecap="round" stroke-linejoin="bevel" transform="matrix(1,0,0,1,0,0)"
font-family="SimSun" font-size="63.5" font-weight="400" font-style="normal" 
>
<path vector-effect="none" fill-rule="evenodd" d="M1398,788 L1398,382"/>
</g>

<g fill="#c8c8aa" fill-opacity="1" stroke="#800000" stroke-opacity="1" stroke-width="8" stroke-linecap="round" stroke-linejoin="bevel" transform="matrix(1,0,0,1,0,0)"
font-family="SimSun" font-size="63.5" font-weight="400" font-style="normal" 
>
<path vector-effect="none" fill-rule="evenodd" d="M1652,788 C1652,844.333 1606.33,890 1550,890 C1493.67,890 1448,844.333 1448,788 C1448,731.667 1493.67,686 1550,686 C1606.33,686 1652,731.667 1652,788 "/>
</g>

<g fill="none" stroke="#800000" stroke-opacity="1" stroke-width="3" stroke-linecap="round" stroke-linejoin="bevel" transform="matrix(1,0,0,1,0,0)"
font-family="SimSun" font-size="63.5" font-weight="400" font-style="normal" 
>
<polyline fill="none" vector-effect="none" points="1413,808 1413,829 " />
</g>

<g fill="none" stroke="#800000" stroke-opacity="1" stroke-width="3" stroke-linecap="round" stroke-linejoin="bevel" transform="matrix(1,0,0,1,0,0)"
font-family="SimSun" font-size="63.5" font-weight="400" font-style="normal" 
>
<polyline fill="none" vector-effect="none" points="1403,818 1423,818 " />
</g>

<g fill="none" stroke="#800000" stroke-opacity="1" stroke-width="3" stroke-linecap="round" stroke-linejoin="bevel" transform="matrix(1,0,0,1,0,0)"
font-family="SimSun" font-size="63.5" font-weight="400" font-style="normal" 
>
<polyline fill="none" vector-effect="none" points="1687,808 1687,829 " />
</g>

<g fill="#004000" fill-opacity="1" stroke="#00ff00" stroke-opacity="1" stroke-width="4" stroke-linecap="round" stroke-linejoin="bevel" transform="matrix(1,0,0,1,0,0)"
font-family="SimSun" font-size="63.5" font-weight="400" font-style="normal" 
>
<path vector-effect="none" fill-rule="evenodd" d="M1509,717 L1560,717 L1560,859 L1509,859 L1509,717"/>
</g>

<g fill="#004000" fill-opacity="1" stroke="#008000" stroke-opacity="1" stroke-width="1" stroke-linecap="square" stroke-linejoin="bevel" transform="matrix(0,-1,1,0,709,2389)"
font-family="Arial" font-size="40.64" font-weight="400" font-style="normal" 
>
<text fill="#008000" fill-opacity="1" stroke="none" xml:space="preserve" x="1549" y="840" font-family="Arial" font-size="40.64" font-weight="400" font-style="normal" 
 >+88.8</text>
</g>

<g fill="#004000" fill-opacity="1" stroke="#00ff00" stroke-opacity="1" stroke-width="4" stroke-linecap="round" stroke-linejoin="bevel" transform="matrix(1,0,0,1,0,0)"
font-family="SimSun" font-size="63.5" font-weight="400" font-style="normal" 
>
</g>

<g fill="#004000" fill-opacity="1" stroke="#800000" stroke-opacity="1" stroke-width="1" stroke-linecap="square" stroke-linejoin="bevel" transform="matrix(0,-1,1,0,778,2440)"
font-family="Arial" font-size="38.608" font-weight="400" font-style="italic" 
>
<text fill="#800000" fill-opacity="1" stroke="none" xml:space="preserve" x="1609" y="831" font-family="Arial" font-size="38.608" font-weight="400" font-style="italic" 
 >Volts</text>
</g>

<g fill="#004000" fill-opacity="1" stroke="#00ff00" stroke-opacity="1" stroke-width="4" stroke-linecap="round" stroke-linejoin="bevel" transform="matrix(1,0,0,1,0,0)"
font-family="SimSun" font-size="63.5" font-weight="400" font-style="normal" 
>
</g>

<g fill="none" stroke="#800000" stroke-opacity="1" stroke-width="8" stroke-linecap="round" stroke-linejoin="bevel" transform="matrix(1,0,0,1,0,0)"
font-family="SimSun" font-size="63.5" font-weight="400" font-style="normal" 
>
<polyline fill="none" vector-effect="none" points="1702,788 1652,788 " />
</g>

<g fill="none" stroke="#800000" stroke-opacity="1" stroke-width="8" stroke-linecap="round" stroke-linejoin="bevel" transform="matrix(1,0,0,1,0,0)"
font-family="SimSun" font-size="63.5" font-weight="400" font-style="normal" 
>
<polyline fill="none" vector-effect="none" points="1398,788 1448,788 " />
</g>

<g fill="none" stroke="#800000" stroke-opacity="1" stroke-width="8" stroke-linecap="round" stroke-linejoin="bevel" transform="matrix(1,0,0,1,0,0)"
font-family="SimSun" font-size="63.5" font-weight="400" font-style="normal" 
>
<polyline fill="none" vector-effect="none" points="204,788 51,788 " />
</g>

<g fill="none" stroke="#800000" stroke-opacity="1" stroke-width="8" stroke-linecap="round" stroke-linejoin="bevel" transform="matrix(1,0,0,1,0,0)"
font-family="SimSun" font-size="63.5" font-weight="400" font-style="normal" 
>
<polyline fill="none" vector-effect="none" points="153,813 102,813 " />
</g>

<g fill="none" stroke="#800000" stroke-opacity="1" stroke-width="8" stroke-linecap="round" stroke-linejoin="bevel" transform="matrix(1,0,0,1,0,0)"
font-family="SimSun" font-size="63.5" font-weight="400" font-style="normal" 
>
<polyline fill="none" vector-effect="none" points="128,813 128,839 " />
</g>

<g fill="none" stroke="#800000" stroke-opacity="1" stroke-width="8" stroke-linecap="round" stroke-linejoin="bevel" transform="matrix(1,0,0,1,0,0)"
font-family="SimSun" font-size="63.5" font-weight="400" font-style="normal" 
>
<polyline fill="none" vector-effect="none" points="128,737 128,788 " />
</g>

<g fill="none" stroke="#800000" stroke-opacity="1" stroke-width="8" stroke-linecap="round" stroke-linejoin="bevel" transform="matrix(1,0,0,1,0,0)"
font-family="SimSun" font-size="63.5" font-weight="400" font-style="normal" 
>
<polyline fill="none" vector-effect="none" points="128,890 128,839 " />
</g>

<g fill="none" stroke="#000000" stroke-opacity="1" stroke-width="1" stroke-linecap="square" stroke-linejoin="bevel" transform="matrix(1,0,0,1,0,0)"
font-family="Arial" font-size="60.96" font-weight="400" font-style="normal" 
>
<text fill="#000000" fill-opacity="1" stroke="none" xml:space="preserve" x="233" y="839" font-family="Arial" font-size="60.96" font-weight="400" font-style="normal" 
 >BAT1</text>
</g>

<g fill="none" stroke="#800000" stroke-opacity="1" stroke-width="8" stroke-linecap="round" stroke-linejoin="bevel" transform="matrix(1,0,0,1,0,0)"
font-family="SimSun" font-size="63.5" font-weight="400" font-style="normal" 
>
</g>

<g fill="none" stroke="#000000" stroke-opacity="1" stroke-width="1" stroke-linecap="square" stroke-linejoin="bevel" transform="matrix(1,0,0,1,0,0)"
font-family="Arial" font-size="40.64" font-weight="400" font-style="normal" 
>
<text fill="#000000" fill-opacity="1" stroke="none" xml:space="preserve" x="233" y="898" font-family="Arial" font-size="40.64" font-weight="400" font-style="normal" 
 >3V</text>
</g>

<g fill="none" stroke="#800000" stroke-opacity="1" stroke-width="8" stroke-linecap="round" stroke-linejoin="bevel" transform="matrix(1,0,0,1,0,0)"
font-family="SimSun" font-size="63.5" font-weight="400" font-style="normal" 
>
</g>

<g fill="#c8c8aa" fill-opacity="1" stroke="#800000" stroke-opacity="1" stroke-width="8" stroke-linecap="round" stroke-linejoin="bevel" transform="matrix(1,0,0,1,0,0)"
font-family="SimSun" font-size="63.5" font-weight="400" font-style="normal" 
>
<path vector-effect="none" fill-rule="evenodd" d="M178,209 L331,209 L331,250 L178,250 L178,209"/>
</g>

<g fill="none" stroke="#800000" stroke-opacity="1" stroke-width="8" stroke-linecap="round" stroke-linejoin="bevel" transform="matrix(1,0,0,1,0,0)"
font-family="SimSun" font-size="63.5" font-weight="400" font-style="normal" 
>
<polyline fill="none" vector-effect="none" points="128,229 178,229 " />
</g>

<g fill="none" stroke="#800000" stroke-opacity="1" stroke-width="8" stroke-linecap="round" stroke-linejoin="bevel" transform="matrix(1,0,0,1,0,0)"
font-family="SimSun" font-size="63.5" font-weight="400" font-style="normal" 
>
<polyline fill="none" vector-effect="none" points="382,229 331,229 " />
</g>

<g fill="none" stroke="#000000" stroke-opacity="1" stroke-width="1" stroke-linecap="square" stroke-linejoin="bevel" transform="matrix(1,0,0,1,0,0)"
font-family="Arial" font-size="60.96" font-weight="400" font-style="normal" 
>
<text fill="#000000" fill-opacity="1" stroke="none" xml:space="preserve" x="174" y="193" font-family="Arial" font-size="60.96" font-weight="400" font-style="normal" 
 >R4</text>
</g>

<g fill="none" stroke="#800000" stroke-opacity="1" stroke-width="8" stroke-linecap="round" stroke-linejoin="bevel" transform="matrix(1,0,0,1,0,0)"
font-family="SimSun" font-size="63.5" font-weight="400" font-style="normal" 
>
</g>

<g fill="none" stroke="#000000" stroke-opacity="1" stroke-width="1" stroke-linecap="square" stroke-linejoin="bevel" transform="matrix(1,0,0,1,0,0)"
font-family="Arial" font-size="40.64" font-weight="400" font-style="normal" 
>
<text fill="#000000" fill-opacity="1" stroke="none" xml:space="preserve" x="174" y="292" font-family="Arial" font-size="40.64" font-weight="400" font-style="normal" 
 >1k</text>
</g>

<g fill="none" stroke="#800000" stroke-opacity="1" stroke-width="8" stroke-linecap="round" stroke-linejoin="bevel" transform="matrix(1,0,0,1,0,0)"
font-family="SimSun" font-size="63.5" font-weight="400" font-style="normal" 
>
</g>

<g fill="#c8c8aa" fill-opacity="1" stroke="#800000" stroke-opacity="1" stroke-width="8" stroke-linecap="round" stroke-linejoin="bevel" transform="matrix(1,0,0,1,0,0)"
font-family="SimSun" font-size="63.5" font-weight="400" font-style="normal" 
>
<path vector-effect="none" fill-rule="evenodd" d="M839,128 L1194,128 L1194,432 L839,432 L839,128"/>
</g>

<g fill="#c8c8aa" fill-opacity="1" stroke="#800000" stroke-opacity="1" stroke-width="8" stroke-linecap="round" stroke-linejoin="bevel" transform="matrix(1,0,0,1,0,0)"
font-family="SimSun" font-size="63.5" font-weight="400" font-style="normal" 
>
<path vector-effect="none" fill-rule="evenodd" d="M966,280 L915,280 L940,331 L966,280"/>
</g>

<g fill="none" stroke="#800000" stroke-opacity="1" stroke-width="8" stroke-linecap="round" stroke-linejoin="bevel" transform="matrix(1,0,0,1,0,0)"
font-family="SimSun" font-size="63.5" font-weight="400" font-style="normal" 
>
<polyline fill="none" vector-effect="none" points="966,331 915,331 " />
</g>

<g fill="none" stroke="#800000" stroke-opacity="1" stroke-width="8" stroke-linecap="round" stroke-linejoin="bevel" transform="matrix(1,0,0,1,0,0)"
font-family="SimSun" font-size="63.5" font-weight="400" font-style="normal" 
>
<polyline fill="none" vector-effect="none" points="940,280 940,229 " />
</g>

<g fill="none" stroke="#800000" stroke-opacity="1" stroke-width="8" stroke-linecap="round" stroke-linejoin="bevel" transform="matrix(1,0,0,1,0,0)"
font-family="SimSun" font-size="63.5" font-weight="400" font-style="normal" 
>
<polyline fill="none" vector-effect="none" points="940,229 839,229 " />
</g>

<g fill="none" stroke="#800000" stroke-opacity="1" stroke-width="8" stroke-linecap="round" stroke-linejoin="bevel" transform="matrix(1,0,0,1,0,0)"
font-family="SimSun" font-size="63.5" font-weight="400" font-style="normal" 
>
<polyline fill="none" vector-effect="none" points="940,331 940,382 " />
</g>

<g fill="none" stroke="#800000" stroke-opacity="1" stroke-width="8" stroke-linecap="round" stroke-linejoin="bevel" transform="matrix(1,0,0,1,0,0)"
font-family="SimSun" font-size="63.5" font-weight="400" font-style="normal" 
>
<polyline fill="none" vector-effect="none" points="940,382 839,382 " />
</g>

<g fill="none" stroke="#800000" stroke-opacity="1" stroke-width="8" stroke-linecap="round" stroke-linejoin="bevel" transform="matrix(1,0,0,1,0,0)"
font-family="SimSun" font-size="63.5" font-weight="400" font-style="normal" 
>
<polyline fill="none" vector-effect="none" points="1042,229 1042,382 " />
</g>

<g fill="none" stroke="#800000" stroke-opacity="1" stroke-width="8" stroke-linecap="round" stroke-linejoin="bevel" transform="matrix(1,0,0,1,0,0)"
font-family="SimSun" font-size="63.5" font-weight="400" font-style="normal" 
>
<polyline fill="none" vector-effect="none" points="1042,280 1144,229 " />
</g>

<g fill="none" stroke="#800000" stroke-opacity="1" stroke-width="8" stroke-linecap="round" stroke-linejoin="bevel" transform="matrix(1,0,0,1,0,0)"
font-family="SimSun" font-size="63.5" font-weight="400" font-style="normal" 
>
<polyline fill="none" vector-effect="none" points="1144,229 1194,229 " />
</g>

<g fill="none" stroke="#800000" stroke-opacity="1" stroke-width="8" stroke-linecap="round" stroke-linejoin="bevel" transform="matrix(1,0,0,1,0,0)"
font-family="SimSun" font-size="63.5" font-weight="400" font-style="normal" 
>
<polyline fill="none" vector-effect="none" points="1042,331 1144,382 " />
</g>

<g fill="none" stroke="#800000" stroke-opacity="1" stroke-width="8" stroke-linecap="round" stroke-linejoin="bevel" transform="matrix(1,0,0,1,0,0)"
font-family="SimSun" font-size="63.5" font-weight="400" font-style="normal" 
>
<polyline fill="none" vector-effect="none" points="1144,382 1194,382 " />
</g>

<g fill="none" stroke="#800000" stroke-opacity="1" stroke-width="8" stroke-linecap="round" stroke-linejoin="bevel" transform="matrix(1,0,0,1,0,0)"
font-family="SimSun" font-size="63.5" font-weight="400" font-style="normal" 
>
<polyline fill="none" vector-effect="none" points="1144,382 1108,356 " />
</g>

<g fill="none" stroke="#800000" stroke-opacity="1" stroke-width="8" stroke-linecap="round" stroke-linejoin="bevel" transform="matrix(1,0,0,1,0,0)"
font-family="SimSun" font-size="63.5" font-weight="400" font-style="normal" 
>
<polyline fill="none" vector-effect="none" points="1144,382 1103,366 " />
</g>

<g fill="none" stroke="#800000" stroke-opacity="1" stroke-width="1" stroke-linecap="square" stroke-linejoin="bevel" transform="matrix(1,0,0,1,0,0)"
font-family="Arial" font-size="40.64" font-weight="400" font-style="normal" 
>
<text fill="#800000" fill-opacity="1" stroke="none" xml:space="preserve" x="851" y="218" font-family="Arial" font-size="40.64" font-weight="400" font-style="normal" 
 >A</text>
</g>

<g fill="none" stroke="#800000" stroke-opacity="1" stroke-width="8" stroke-linecap="round" stroke-linejoin="bevel" transform="matrix(1,0,0,1,0,0)"
font-family="SimSun" font-size="63.5" font-weight="400" font-style="normal" 
>
</g>

<g fill="none" stroke="#800000" stroke-opacity="1" stroke-width="1" stroke-linecap="square" stroke-linejoin="bevel" transform="matrix(1,0,0,1,0,0)"
font-family="Arial" font-size="40.64" font-weight="400" font-style="normal" 
>
<text fill="#800000" fill-opacity="1" stroke="none" xml:space="preserve" x="851" y="421" font-family="Arial" font-size="40.64" font-weight="400" font-style="normal" 
 >K</text>
</g>

<g fill="none" stroke="#800000" stroke-opacity="1" stroke-width="8" stroke-linecap="round" stroke-linejoin="bevel" transform="matrix(1,0,0,1,0,0)"
font-family="SimSun" font-size="63.5" font-weight="400" font-style="normal" 
>
</g>

<g fill="none" stroke="#800000" stroke-opacity="1" stroke-width="1" stroke-linecap="square" stroke-linejoin="bevel" transform="matrix(1,0,0,1,0,0)"
font-family="Arial" font-size="40.64" font-weight="400" font-style="normal" 
>
<text fill="#800000" fill-opacity="1" stroke="none" xml:space="preserve" x="1154" y="218" font-family="Arial" font-size="40.64" font-weight="400" font-style="normal" 
 >C</text>
</g>

<g fill="none" stroke="#800000" stroke-opacity="1" stroke-width="8" stroke-linecap="round" stroke-linejoin="bevel" transform="matrix(1,0,0,1,0,0)"
font-family="SimSun" font-size="63.5" font-weight="400" font-style="normal" 
>
</g>

<g fill="none" stroke="#800000" stroke-opacity="1" stroke-width="1" stroke-linecap="square" stroke-linejoin="bevel" transform="matrix(1,0,0,1,0,0)"
font-family="Arial" font-size="40.64" font-weight="400" font-style="normal" 
>
<text fill="#800000" fill-opacity="1" stroke="none" xml:space="preserve" x="1156" y="421" font-family="Arial" font-size="40.64" font-weight="400" font-style="normal" 
 >E</text>
</g>

<g fill="none" stroke="#800000" stroke-opacity="1" stroke-width="8" stroke-linecap="round" stroke-linejoin="bevel" transform="matrix(1,0,0,1,0,0)"
font-family="SimSun" font-size="63.5" font-weight="400" font-style="normal" 
>
</g>

<g fill="none" stroke="#800000" stroke-opacity="1" stroke-width="1" stroke-linecap="square" stroke-linejoin="bevel" transform="matrix(1,0,0,1,0,0)"
font-family="Arial" font-size="40.64" font-weight="400" font-style="normal" 
>
<text fill="#800000" fill-opacity="1" stroke="none" xml:space="preserve" x="1156" y="167" font-family="Arial" font-size="40.64" font-weight="400" font-style="normal" 
 >B</text>
</g>

<g fill="none" stroke="#800000" stroke-opacity="1" stroke-width="8" stroke-linecap="round" stroke-linejoin="bevel" transform="matrix(1,0,0,1,0,0)"
font-family="SimSun" font-size="63.5" font-weight="400" font-style="normal" 
>
</g>

<g fill="none" stroke="#800000" stroke-opacity="1" stroke-width="8" stroke-linecap="round" stroke-linejoin="bevel" transform="matrix(1,0,0,1,0,0)"
font-family="SimSun" font-size="63.5" font-weight="400" font-style="normal" 
>
<polyline fill="none" vector-effect="none" points="1194,178 1017,178 " />
</g>

<g fill="none" stroke="#800000" stroke-opacity="1" stroke-width="8" stroke-linecap="round" stroke-linejoin="bevel" transform="matrix(1,0,0,1,0,0)"
font-family="SimSun" font-size="63.5" font-weight="400" font-style="normal" 
>
<polyline fill="none" vector-effect="none" points="1017,178 1017,305 " />
</g>

<g fill="none" stroke="#800000" stroke-opacity="1" stroke-width="8" stroke-linecap="round" stroke-linejoin="bevel" transform="matrix(1,0,0,1,0,0)"
font-family="SimSun" font-size="63.5" font-weight="400" font-style="normal" 
>
<polyline fill="none" vector-effect="none" points="1017,305 1042,305 " />
</g>

<g fill="none" stroke="#800000" stroke-opacity="1" stroke-width="8" stroke-linecap="round" stroke-linejoin="bevel" transform="matrix(1,0,0,1,0,0)"
font-family="SimSun" font-size="63.5" font-weight="400" font-style="normal" 
>
<polyline fill="none" vector-effect="none" points="737,229 839,229 " />
</g>

<g fill="none" stroke="#000000" stroke-opacity="1" stroke-width="1" stroke-linecap="square" stroke-linejoin="bevel" transform="matrix(1,0,0,1,0,0)"
font-family="Arial" font-size="40.64" font-weight="400" font-style="normal" 
>
<text fill="#000000" fill-opacity="1" stroke="none" xml:space="preserve" x="765" y="221" font-family="Arial" font-size="40.64" font-weight="400" font-style="normal" 
 >1</text>
</g>

<g fill="none" stroke="#800000" stroke-opacity="1" stroke-width="8" stroke-linecap="round" stroke-linejoin="bevel" transform="matrix(1,0,0,1,0,0)"
font-family="SimSun" font-size="63.5" font-weight="400" font-style="normal" 
>
</g>

<g fill="none" stroke="#800000" stroke-opacity="1" stroke-width="8" stroke-linecap="round" stroke-linejoin="bevel" transform="matrix(1,0,0,1,0,0)"
font-family="SimSun" font-size="63.5" font-weight="400" font-style="normal" 
>
<polyline fill="none" vector-effect="none" points="737,382 839,382 " />
</g>

<g fill="none" stroke="#000000" stroke-opacity="1" stroke-width="1" stroke-linecap="square" stroke-linejoin="bevel" transform="matrix(1,0,0,1,0,0)"
font-family="Arial" font-size="40.64" font-weight="400" font-style="normal" 
>
<text fill="#000000" fill-opacity="1" stroke="none" xml:space="preserve" x="765" y="374" font-family="Arial" font-size="40.64" font-weight="400" font-style="normal" 
 >2</text>
</g>

<g fill="none" stroke="#800000" stroke-opacity="1" stroke-width="8" stroke-linecap="round" stroke-linejoin="bevel" transform="matrix(1,0,0,1,0,0)"
font-family="SimSun" font-size="63.5" font-weight="400" font-style="normal" 
>
</g>

<g fill="none" stroke="#800000" stroke-opacity="1" stroke-width="8" stroke-linecap="round" stroke-linejoin="bevel" transform="matrix(1,0,0,1,0,0)"
font-family="SimSun" font-size="63.5" font-weight="400" font-style="normal" 
>
<polyline fill="none" vector-effect="none" points="1296,382 1194,382 " />
</g>

<g fill="none" stroke="#000000" stroke-opacity="1" stroke-width="1" stroke-linecap="square" stroke-linejoin="bevel" transform="matrix(1,0,0,1,0,0)"
font-family="Arial" font-size="40.64" font-weight="400" font-style="normal" 
>
<text fill="#000000" fill-opacity="1" stroke="none" xml:space="preserve" x="1245" y="374" font-family="Arial" font-size="40.64" font-weight="400" font-style="normal" 
 >4</text>
</g>

<g fill="none" stroke="#800000" stroke-opacity="1" stroke-width="8" stroke-linecap="round" stroke-linejoin="bevel" transform="matrix(1,0,0,1,0,0)"
font-family="SimSun" font-size="63.5" font-weight="400" font-style="normal" 
>
</g>

<g fill="none" stroke="#800000" stroke-opacity="1" stroke-width="8" stroke-linecap="round" stroke-linejoin="bevel" transform="matrix(1,0,0,1,0,0)"
font-family="SimSun" font-size="63.5" font-weight="400" font-style="normal" 
>
<polyline fill="none" vector-effect="none" points="1296,229 1194,229 " />
</g>

<g fill="none" stroke="#000000" stroke-opacity="1" stroke-width="1" stroke-linecap="square" stroke-linejoin="bevel" transform="matrix(1,0,0,1,0,0)"
font-family="Arial" font-size="40.64" font-weight="400" font-style="normal" 
>
<text fill="#000000" fill-opacity="1" stroke="none" xml:space="preserve" x="1245" y="221" font-family="Arial" font-size="40.64" font-weight="400" font-style="normal" 
 >5</text>
</g>

<g fill="none" stroke="#800000" stroke-opacity="1" stroke-width="8" stroke-linecap="round" stroke-linejoin="bevel" transform="matrix(1,0,0,1,0,0)"
font-family="SimSun" font-size="63.5" font-weight="400" font-style="normal" 
>
</g>

<g fill="none" stroke="#800000" stroke-opacity="1" stroke-width="8" stroke-linecap="round" stroke-linejoin="bevel" transform="matrix(1,0,0,1,0,0)"
font-family="SimSun" font-size="63.5" font-weight="400" font-style="normal" 
>
<polyline fill="none" vector-effect="none" points="1296,178 1194,178 " />
</g>

<g fill="none" stroke="#000000" stroke-opacity="1" stroke-width="1" stroke-linecap="square" stroke-linejoin="bevel" transform="matrix(1,0,0,1,0,0)"
font-family="Arial" font-size="40.64" font-weight="400" font-style="normal" 
>
<text fill="#000000" fill-opacity="1" stroke="none" xml:space="preserve" x="1245" y="170" font-family="Arial" font-size="40.64" font-weight="400" font-style="normal" 
 >6</text>
</g>

<g fill="none" stroke="#800000" stroke-opacity="1" stroke-width="8" stroke-linecap="round" stroke-linejoin="bevel" transform="matrix(1,0,0,1,0,0)"
font-family="SimSun" font-size="63.5" font-weight="400" font-style="normal" 
>
</g>

<g fill="none" stroke="#000000" stroke-opacity="1" stroke-width="1" stroke-linecap="square" stroke-linejoin="bevel" transform="matrix(1,0,0,1,0,0)"
font-family="Arial" font-size="60.96" font-weight="400" font-style="normal" 
>
<text fill="#000000" fill-opacity="1" stroke="none" xml:space="preserve" x="835" y="112" font-family="Arial" font-size="60.96" font-weight="400" font-style="normal" 
 >U2</text>
</g>

<g fill="none" stroke="#800000" stroke-opacity="1" stroke-width="8" stroke-linecap="round" stroke-linejoin="bevel" transform="matrix(1,0,0,1,0,0)"
font-family="SimSun" font-size="63.5" font-weight="400" font-style="normal" 
>
</g>

<g fill="none" stroke="#000000" stroke-opacity="1" stroke-width="1" stroke-linecap="square" stroke-linejoin="bevel" transform="matrix(1,0,0,1,0,0)"
font-family="Arial" font-size="40.64" font-weight="400" font-style="normal" 
>
<text fill="#000000" fill-opacity="1" stroke="none" xml:space="preserve" x="835" y="474" font-family="Arial" font-size="40.64" font-weight="400" font-style="normal" 
 >4N35</text>
</g>

<g fill="none" stroke="#800000" stroke-opacity="1" stroke-width="8" stroke-linecap="round" stroke-linejoin="bevel" transform="matrix(1,0,0,1,0,0)"
font-family="SimSun" font-size="63.5" font-weight="400" font-style="normal" 
>
</g>

<g fill="#c8c8aa" fill-opacity="1" stroke="#800000" stroke-opacity="1" stroke-width="8" stroke-linecap="round" stroke-linejoin="bevel" transform="matrix(1,0,0,1,0,0)"
font-family="SimSun" font-size="63.5" font-weight="400" font-style="normal" 
>
<path vector-effect="none" fill-rule="evenodd" d="M1499,107 L1652,107 L1652,148 L1499,148 L1499,107"/>
</g>

<g fill="none" stroke="#800000" stroke-opacity="1" stroke-width="8" stroke-linecap="round" stroke-linejoin="bevel" transform="matrix(1,0,0,1,0,0)"
font-family="SimSun" font-size="63.5" font-weight="400" font-style="normal" 
>
<polyline fill="none" vector-effect="none" points="1448,128 1499,128 " />
</g>

<g fill="none" stroke="#800000" stroke-opacity="1" stroke-width="8" stroke-linecap="round" stroke-linejoin="bevel" transform="matrix(1,0,0,1,0,0)"
font-family="SimSun" font-size="63.5" font-weight="400" font-style="normal" 
>
<polyline fill="none" vector-effect="none" points="1702,128 1652,128 " />
</g>

<g fill="none" stroke="#000000" stroke-opacity="1" stroke-width="1" stroke-linecap="square" stroke-linejoin="bevel" transform="matrix(1,0,0,1,0,0)"
font-family="Arial" font-size="60.96" font-weight="400" font-style="normal" 
>
<text fill="#000000" fill-opacity="1" stroke="none" xml:space="preserve" x="1495" y="91" font-family="Arial" font-size="60.96" font-weight="400" font-style="normal" 
 >R5</text>
</g>

<g fill="none" stroke="#800000" stroke-opacity="1" stroke-width="8" stroke-linecap="round" stroke-linejoin="bevel" transform="matrix(1,0,0,1,0,0)"
font-family="SimSun" font-size="63.5" font-weight="400" font-style="normal" 
>
</g>

<g fill="none" stroke="#000000" stroke-opacity="1" stroke-width="1" stroke-linecap="square" stroke-linejoin="bevel" transform="matrix(1,0,0,1,0,0)"
font-family="Arial" font-size="40.64" font-weight="400" font-style="normal" 
>
<text fill="#000000" fill-opacity="1" stroke="none" xml:space="preserve" x="1495" y="190" font-family="Arial" font-size="40.64" font-weight="400" font-style="normal" 
 >470</text>
</g>

<g fill="none" stroke="#800000" stroke-opacity="1" stroke-width="8" stroke-linecap="round" stroke-linejoin="bevel" transform="matrix(1,0,0,1,0,0)"
font-family="SimSun" font-size="63.5" font-weight="400" font-style="normal" 
>
</g>

<g fill="none" stroke="#800000" stroke-opacity="1" stroke-width="8" stroke-linecap="round" stroke-linejoin="bevel" transform="matrix(1,0,0,1,0,0)"
font-family="SimSun" font-size="63.5" font-weight="400" font-style="normal" 
>
<polyline fill="none" vector-effect="none" points="1829,280 1677,280 " />
</g>

<g fill="none" stroke="#800000" stroke-opacity="1" stroke-width="8" stroke-linecap="round" stroke-linejoin="bevel" transform="matrix(1,0,0,1,0,0)"
font-family="SimSun" font-size="63.5" font-weight="400" font-style="normal" 
>
<polyline fill="none" vector-effect="none" points="1779,305 1728,305 " />
</g>

<g fill="none" stroke="#800000" stroke-opacity="1" stroke-width="8" stroke-linecap="round" stroke-linejoin="bevel" transform="matrix(1,0,0,1,0,0)"
font-family="SimSun" font-size="63.5" font-weight="400" font-style="normal" 
>
<polyline fill="none" vector-effect="none" points="1753,305 1753,331 " />
</g>

<g fill="none" stroke="#800000" stroke-opacity="1" stroke-width="8" stroke-linecap="round" stroke-linejoin="bevel" transform="matrix(1,0,0,1,0,0)"
font-family="SimSun" font-size="63.5" font-weight="400" font-style="normal" 
>
<polyline fill="none" vector-effect="none" points="1753,229 1753,280 " />
</g>

<g fill="none" stroke="#800000" stroke-opacity="1" stroke-width="8" stroke-linecap="round" stroke-linejoin="bevel" transform="matrix(1,0,0,1,0,0)"
font-family="SimSun" font-size="63.5" font-weight="400" font-style="normal" 
>
<polyline fill="none" vector-effect="none" points="1753,382 1753,331 " />
</g>

<g fill="none" stroke="#000000" stroke-opacity="1" stroke-width="1" stroke-linecap="square" stroke-linejoin="bevel" transform="matrix(1,0,0,1,0,0)"
font-family="Arial" font-size="60.96" font-weight="400" font-style="normal" 
>
<text fill="#000000" fill-opacity="1" stroke="none" xml:space="preserve" x="1859" y="331" font-family="Arial" font-size="60.96" font-weight="400" font-style="normal" 
 >BAT2</text>
</g>

<g fill="none" stroke="#800000" stroke-opacity="1" stroke-width="8" stroke-linecap="round" stroke-linejoin="bevel" transform="matrix(1,0,0,1,0,0)"
font-family="SimSun" font-size="63.5" font-weight="400" font-style="normal" 
>
</g>

<g fill="none" stroke="#000000" stroke-opacity="1" stroke-width="1" stroke-linecap="square" stroke-linejoin="bevel" transform="matrix(1,0,0,1,0,0)"
font-family="Arial" font-size="40.64" font-weight="400" font-style="normal" 
>
<text fill="#000000" fill-opacity="1" stroke="none" xml:space="preserve" x="1859" y="390" font-family="Arial" font-size="40.64" font-weight="400" font-style="normal" 
 >12V</text>
</g>

<g fill="none" stroke="#800000" stroke-opacity="1" stroke-width="8" stroke-linecap="round" stroke-linejoin="bevel" transform="matrix(1,0,0,1,0,0)"
font-family="SimSun" font-size="63.5" font-weight="400" font-style="normal" 
>
</g>

<g fill="#000000" fill-opacity="1" stroke="#800000" stroke-opacity="1" stroke-width="8" stroke-linecap="round" stroke-linejoin="bevel" transform="matrix(1,0,0,1,0,0)"
font-family="SimSun" font-size="63.5" font-weight="400" font-style="normal" 
>
<path vector-effect="none" fill-rule="evenodd" d="M1611,432 C1611,465.689 1583.69,493 1550,493 C1516.31,493 1489,465.689 1489,432 C1489,398.311 1516.31,371 1550,371 C1583.69,371 1611,398.311 1611,432 "/>
</g>

<g fill="none" stroke="#800000" stroke-opacity="1" stroke-width="8" stroke-linecap="round" stroke-linejoin="bevel" transform="matrix(1,0,0,1,0,0)"
font-family="SimSun" font-size="63.5" font-weight="400" font-style="normal" 
>
<polyline fill="none" vector-effect="none" points="1575,407 1575,458 " />
</g>

<g fill="none" stroke="#800000" stroke-opacity="1" stroke-width="8" stroke-linecap="round" stroke-linejoin="bevel" transform="matrix(1,0,0,1,0,0)"
font-family="SimSun" font-size="63.5" font-weight="400" font-style="normal" 
>
<polyline fill="none" vector-effect="none" points="1499,432 1535,432 " />
</g>

<g fill="none" stroke="#800000" stroke-opacity="1" stroke-width="8" stroke-linecap="round" stroke-linejoin="bevel" transform="matrix(1,0,0,1,0,0)"
font-family="SimSun" font-size="63.5" font-weight="400" font-style="normal" 
>
<polyline fill="none" vector-effect="none" points="1575,432 1601,432 " />
</g>

<g fill="#000000" fill-opacity="1" stroke="#800000" stroke-opacity="1" stroke-width="8" stroke-linecap="round" stroke-linejoin="bevel" transform="matrix(1,0,0,1,0,0)"
font-family="SimSun" font-size="63.5" font-weight="400" font-style="normal" 
>
<path vector-effect="none" fill-rule="evenodd" d="M1575,432 L1535,463 L1535,402 L1575,432"/>
</g>

<g fill="none" stroke="#800000" stroke-opacity="1" stroke-width="8" stroke-linecap="round" stroke-linejoin="bevel" transform="matrix(1,0,0,1,0,0)"
font-family="SimSun" font-size="63.5" font-weight="400" font-style="normal" 
>
<polyline fill="none" vector-effect="none" points="1448,432 1499,432 " />
</g>

<g fill="none" stroke="#800000" stroke-opacity="1" stroke-width="8" stroke-linecap="round" stroke-linejoin="bevel" transform="matrix(1,0,0,1,0,0)"
font-family="SimSun" font-size="63.5" font-weight="400" font-style="normal" 
>
<polyline fill="none" vector-effect="none" points="1652,432 1601,432 " />
</g>

<g fill="none" stroke="#000000" stroke-opacity="1" stroke-width="1" stroke-linecap="square" stroke-linejoin="bevel" transform="matrix(1,0,0,1,0,0)"
font-family="Arial" font-size="60.96" font-weight="400" font-style="normal" 
>
<text fill="#000000" fill-opacity="1" stroke="none" xml:space="preserve" x="1485" y="355" font-family="Arial" font-size="60.96" font-weight="400" font-style="normal" 
 >D3</text>
</g>

<g fill="none" stroke="#800000" stroke-opacity="1" stroke-width="8" stroke-linecap="round" stroke-linejoin="bevel" transform="matrix(1,0,0,1,0,0)"
font-family="SimSun" font-size="63.5" font-weight="400" font-style="normal" 
>
</g>

<g fill="none" stroke="#000000" stroke-opacity="1" stroke-width="1" stroke-linecap="square" stroke-linejoin="bevel" transform="matrix(1,0,0,1,0,0)"
font-family="Arial" font-size="40.64" font-weight="400" font-style="normal" 
>
<text fill="#000000" fill-opacity="1" stroke="none" xml:space="preserve" x="1485" y="535" font-family="Arial" font-size="40.64" font-weight="400" font-style="normal" 
 >LED-RED</text>
</g>

<g fill="none" stroke="#800000" stroke-opacity="1" stroke-width="8" stroke-linecap="round" stroke-linejoin="bevel" transform="matrix(1,0,0,1,0,0)"
font-family="SimSun" font-size="63.5" font-weight="400" font-style="normal" 
>
</g>

<g fill="#c8c8aa" fill-opacity="1" stroke="#800000" stroke-opacity="1" stroke-width="8" stroke-linecap="round" stroke-linejoin="bevel" transform="matrix(1,0,0,1,0,0)"
font-family="SimSun" font-size="63.5" font-weight="400" font-style="normal" 
>
<path vector-effect="none" fill-rule="evenodd" d="M138,448 C138,453.523 133.523,458 128,458 C122.477,458 118,453.523 118,448 C118,442.477 122.477,438 128,438 C133.523,438 138,442.477 138,448 "/>
</g>

<g fill="#c8c8aa" fill-opacity="1" stroke="#800000" stroke-opacity="1" stroke-width="8" stroke-linecap="round" stroke-linejoin="bevel" transform="matrix(1,0,0,1,0,0)"
font-family="SimSun" font-size="63.5" font-weight="400" font-style="normal" 
>
<path vector-effect="none" fill-rule="evenodd" d="M138,570 C138,575.523 133.523,580 128,580 C122.477,580 118,575.523 118,570 C118,564.477 122.477,560 128,560 C133.523,560 138,564.477 138,570 "/>
</g>

<g fill="none" stroke="#800000" stroke-opacity="1" stroke-width="8" stroke-linecap="round" stroke-linejoin="bevel" transform="matrix(1,0,0,1,0,0)"
font-family="SimSun" font-size="63.5" font-weight="400" font-style="normal" 
>
<polyline fill="none" vector-effect="none" points="128,585 128,580 " />
</g>

<g fill="none" stroke="#800000" stroke-opacity="1" stroke-width="8" stroke-linecap="round" stroke-linejoin="bevel" transform="matrix(1,0,0,1,0,0)"
font-family="SimSun" font-size="63.5" font-weight="400" font-style="normal" 
>
<polyline fill="none" vector-effect="none" points="128,437 128,432 " />
</g>

<g fill="none" stroke="#800000" stroke-opacity="1" stroke-width="8" stroke-linecap="round" stroke-linejoin="bevel" transform="matrix(1,0,0,1,0,0)"
font-family="SimSun" font-size="63.5" font-weight="400" font-style="normal" 
>
<polyline fill="none" vector-effect="none" points="123,559 62,463 " />
</g>

<g fill="none" stroke="#800000" stroke-opacity="1" stroke-width="8" stroke-linecap="round" stroke-linejoin="bevel" transform="matrix(1,0,0,1,0,0)"
font-family="SimSun" font-size="63.5" font-weight="400" font-style="normal" 
>
<polyline fill="none" vector-effect="none" points="128,636 128,585 " />
</g>

<g fill="none" stroke="#800000" stroke-opacity="1" stroke-width="8" stroke-linecap="round" stroke-linejoin="bevel" transform="matrix(1,0,0,1,0,0)"
font-family="SimSun" font-size="63.5" font-weight="400" font-style="normal" 
>
<polyline fill="none" vector-effect="none" points="128,382 128,432 " />
</g>

<g fill="#400000" fill-opacity="1" stroke="#ff0000" stroke-opacity="1" stroke-width="4" stroke-linecap="round" stroke-linejoin="bevel" transform="matrix(1,0,0,1,0,0)"
font-family="SimSun" font-size="63.5" font-weight="400" font-style="normal" 
>
<path vector-effect="none" fill-rule="evenodd" d="M97,432 C97,443.046 88.0457,452 77,452 C65.9543,452 57,443.046 57,432 C57,420.954 65.9543,412 77,412 C88.0457,412 97,420.954 97,432 "/>
</g>

<g fill="none" stroke="#ff0000" stroke-opacity="1" stroke-width="4" stroke-linecap="round" stroke-linejoin="bevel" transform="matrix(1,0,0,1,0,0)"
font-family="SimSun" font-size="63.5" font-weight="400" font-style="normal" 
>
<polyline fill="none" vector-effect="none" points="87,432 82,437 " />
</g>

<g fill="none" stroke="#ff0000" stroke-opacity="1" stroke-width="4" stroke-linecap="round" stroke-linejoin="bevel" transform="matrix(1,0,0,1,0,0)"
font-family="SimSun" font-size="63.5" font-weight="400" font-style="normal" 
>
<polyline fill="none" vector-effect="none" points="87,432 82,427 " />
</g>

<g fill="none" stroke="#ff0000" stroke-opacity="1" stroke-width="4" stroke-linecap="round" stroke-linejoin="bevel" transform="matrix(1,0,0,1,0,0)"
font-family="SimSun" font-size="63.5" font-weight="400" font-style="normal" 
>
<polyline fill="none" vector-effect="none" points="87,432 67,432 " />
</g>

<g fill="#400000" fill-opacity="1" stroke="#ff0000" stroke-opacity="1" stroke-width="4" stroke-linecap="round" stroke-linejoin="bevel" transform="matrix(1,0,0,1,0,0)"
font-family="SimSun" font-size="63.5" font-weight="400" font-style="normal" 
>
<path vector-effect="none" fill-rule="evenodd" d="M97,382 C97,393.046 88.0457,402 77,402 C65.9543,402 57,393.046 57,382 C57,370.954 65.9543,362 77,362 C88.0457,362 97,370.954 97,382 "/>
</g>

<g fill="none" stroke="#ff0000" stroke-opacity="1" stroke-width="4" stroke-linecap="round" stroke-linejoin="bevel" transform="matrix(1,0,0,1,0,0)"
font-family="SimSun" font-size="63.5" font-weight="400" font-style="normal" 
>
<polyline fill="none" vector-effect="none" points="67,382 72,387 " />
</g>

<g fill="none" stroke="#ff0000" stroke-opacity="1" stroke-width="4" stroke-linecap="round" stroke-linejoin="bevel" transform="matrix(1,0,0,1,0,0)"
font-family="SimSun" font-size="63.5" font-weight="400" font-style="normal" 
>
<polyline fill="none" vector-effect="none" points="67,382 72,377 " />
</g>

<g fill="none" stroke="#ff0000" stroke-opacity="1" stroke-width="4" stroke-linecap="round" stroke-linejoin="bevel" transform="matrix(1,0,0,1,0,0)"
font-family="SimSun" font-size="63.5" font-weight="400" font-style="normal" 
>
<polyline fill="none" vector-effect="none" points="67,382 87,382 " />
</g>

<g fill="#004000" fill-opacity="1" stroke="#004000" stroke-opacity="1" stroke-width="8" stroke-linecap="round" stroke-linejoin="bevel" transform="matrix(1,0,0,1,0,0)"
font-family="SimSun" font-size="63.5" font-weight="400" font-style="normal" 
>
<path vector-effect="none" fill-rule="evenodd" d="M1712,432 C1712,437.523 1707.52,442 1702,442 C1696.48,442 1692,437.523 1692,432 C1692,426.477 1696.48,422 1702,422 C1707.52,422 1712,426.477 1712,432 "/>
</g>

<g fill="#004000" fill-opacity="1" stroke="#004000" stroke-opacity="1" stroke-width="8" stroke-linecap="round" stroke-linejoin="bevel" transform="matrix(1,0,0,1,0,0)"
font-family="SimSun" font-size="63.5" font-weight="400" font-style="normal" 
>
<path vector-effect="none" fill-rule="evenodd" d="M1408,382 C1408,387.523 1403.52,392 1398,392 C1392.48,392 1388,387.523 1388,382 C1388,376.477 1392.48,372 1398,372 C1403.52,372 1408,376.477 1408,382 "/>
</g>
</g>
</svg>
